<svg width="58" height="59" viewBox="0 0 58 59" fill="none" xmlns="http://www.w3.org/2000/svg">
<path d="M3.9872 25.3994C19.5564 17.0732 29.9383 11.584 35.133 8.93193C49.9646 1.35969 53.0465 0.0443187 55.0553 0.000421087C55.4971 -0.00866874 56.4849 0.125728 57.1248 0.763049C57.6651 1.30119 57.8138 2.02815 57.8849 2.53836C57.956 3.04858 58.0446 4.21087 57.9742 5.11905C57.1705 15.4849 53.6927 40.6399 51.9235 52.2498C51.1748 57.1624 49.7007 58.8096 48.2736 58.9708C45.1721 59.3211 42.817 56.4549 39.8131 54.0379C35.1126 50.2558 32.4571 47.9014 27.8945 44.2108C22.6215 39.9456 26.0398 37.6014 29.0448 33.7703C29.8312 32.7677 43.4963 17.511 43.7608 16.127C43.7938 15.9539 43.8245 15.3087 43.5123 14.968C43.2 14.6273 42.7391 14.7438 42.4065 14.8365C41.935 14.9678 34.4259 21.06 19.8791 33.1131C17.7477 34.9096 15.8171 35.785 14.0873 35.7391C12.1804 35.6885 8.5123 34.4157 5.78543 33.3276C2.44081 31.9931 -0.217422 31.2876 0.014051 29.0212C0.134616 27.8407 1.459 26.6334 3.9872 25.3994Z" fill="white"/>
</svg>
