<svg width="58" height="57" viewBox="0 0 58 57" fill="none" xmlns="http://www.w3.org/2000/svg">
<path fill-rule="evenodd" clip-rule="evenodd" d="M49.3 8.19375C43.8625 2.85 36.6125 0 29 0C13.05 0 0 12.825 0 28.5C0 33.4875 1.45002 38.475 3.98752 42.75L0 57L15.225 53.0812C19.575 55.2187 24.2875 56.6437 29 56.6437C44.95 56.6437 58 43.8187 58 28.1437C58 20.6625 54.7375 13.5375 49.3 8.19375ZM29 52.0125C24.65 52.0125 20.3 50.9438 16.675 48.8063L15.95 48.45L6.88748 50.9437L9.42502 42.3937L8.69998 41.325C6.16248 37.4063 5.07498 33.1313 5.07498 28.8563C5.07498 16.0313 15.95 5.34375 29 5.34375C35.525 5.34375 41.325 7.8375 46.0375 12.1125C50.75 16.7437 52.925 22.4438 52.925 28.8563C52.925 41.325 42.4125 52.0125 29 52.0125ZM42.05 34.2C41.325 33.8438 37.7 32.0625 36.975 32.0625C36.25 31.7062 35.8875 31.7063 35.525 32.4188C35.1625 33.1313 33.7125 34.5562 33.35 35.2687C32.9875 35.625 32.625 35.625 31.9 35.625C31.175 35.2687 29 34.5562 26.1 32.0625C23.925 30.2812 22.475 27.7875 22.1125 27.075C21.75 26.3625 22.1125 26.0062 22.475 25.65C22.8375 25.2937 23.2 24.9375 23.5625 24.5812C23.925 24.225 23.925 23.8688 24.2875 23.5125C24.65 23.1563 24.2875 22.8 24.2875 22.4438C24.2875 22.0875 22.8375 18.525 22.1125 17.1C21.75 16.0313 21.025 16.0312 20.6625 16.0312C20.3 16.0312 19.9375 16.0312 19.2125 16.0312C18.85 16.0312 18.125 16.0312 17.4 16.7437C16.675 17.4562 14.8625 19.2375 14.8625 22.8C14.8625 26.3625 17.4 29.5687 17.7625 30.2812C18.125 30.6375 22.8375 38.1187 30.0875 40.9688C36.25 43.4625 37.3375 42.75 38.7875 42.75C40.2375 42.75 43.1375 40.9688 43.5 39.5438C44.225 37.7625 44.225 36.3375 43.8625 36.3375C43.5 34.5563 42.775 34.5563 42.05 34.2Z" fill="white"/>
</svg>
